<svg xmlns="http://www.w3.org/2000/svg" width="122.88" height="122.88" xmlns:v="https://vecta.io/nano"><defs><linearGradient id="A" x1="0" y1="61.44" x2="122.88" y2="61.44" gradientUnits="userSpaceOnUse"><stop offset="0" stop-color="#95f"/><stop offset="1" stop-color="#00aad4"/></linearGradient><linearGradient id="B" x1="14.367" y1="65.504" x2="195.245" y2="145.442" gradientUnits="userSpaceOnUse"><stop offset="0" stop-color="#0f6"/><stop offset="1" stop-color="#37abc8"/></linearGradient></defs><path d="M15.33 1.738h72.51a15.36 15.36 0 0 1 15.33 15.33v44.05a15.36 15.36 0 0 1-15.33 15.33h-46l-23.28 20a2.58 2.58 0 0 1-3.64-.29 2.54 2.54 0 0 1-.61-1.84l1.22-17.88h-.2A15.36 15.36 0 0 1 0 61.117v-44.05a15.36 15.36 0 0 1 15.33-15.33zm95.36 32.33a15.09 15.09 0 0 1 12.19 14.75v36.66a15.07 15.07 0 0 1-15 15h-.54l1.25 18.26h0a2.27 2.27 0 0 1-3.73 1.87l-23.37-20.7H31.2l15.16-15.42H98a12.78 12.78 0 0 0 12.73-12.75v-36.66-1zm-80.27 15.25a2.59 2.59 0 1 1 0-5.17h34a2.59 2.59 0 1 1 0 5.17zm0-17.73a2.59 2.59 0 1 1 0-5.17h45.29a2.59 2.59 0 1 1 0 5.17zm57.41-24.68h-72.5a10.17 10.17 0 0 0-10.16 10.16v44.05a10.19 10.19 0 0 0 10.16 10.16h3.15a2.58 2.58 0 0 1 2.39 2.74l-1 14.49 19.19-16.5a2.6 2.6 0 0 1 1.82-.75h46.95A10.21 10.21 0 0 0 98 61.117v-44.05a10.19 10.19 0 0 0-10.17-10.16z" fill="url(#A)"/><g fill-rule="evenodd"><path d="M6 47.51h81.64a6 6 0 0 1 6 6v63.38a6 6 0 0 1-6 6H6a6 6 0 0 1-6-6V53.5a6 6 0 0 1 6-6z" fill="url(#B)" transform="matrix(.4981 0 0 .4981 61.890313 30.200494)"/><path d="M103.517 53.865h-5.653v-4.692a13.61 13.61 0 0 0-3.756-9.464c-2.299-2.472-5.523-3.876-8.899-3.876s-6.599 1.404-8.899 3.876a13.61 13.61 0 0 0-3.756 9.464v4.692h-5.653v-4.692a19.29 19.29 0 0 1 5.34-13.354c3.361-3.584 8.055-5.617 12.968-5.617s9.607 2.033 12.968 5.617a19.26 19.26 0 0 1 5.34 13.354z" fill="#0b0b28"/></g></svg>